<?xml version="1.0" encoding="UTF-8" standalone="no"?>
<!-- Created with Inkscape (http://www.inkscape.org/) -->

<svg
   width="71.437546mm"
   height="53.26915mm"
   viewBox="0 0 71.437546 53.26915"
   version="1.1"
   id="svg1"
   xml:space="preserve"
   xmlns:inkscape="http://www.inkscape.org/namespaces/inkscape"
   xmlns:sodipodi="http://sodipodi.sourceforge.net/DTD/sodipodi-0.dtd"
   xmlns="http://www.w3.org/2000/svg"
   xmlns:svg="http://www.w3.org/2000/svg"><sodipodi:namedview
     id="namedview1"
     pagecolor="#ffffff"
     bordercolor="#000000"
     borderopacity="0.25"
     inkscape:showpageshadow="2"
     inkscape:pageopacity="0.0"
     inkscape:pagecheckerboard="0"
     inkscape:deskcolor="#d1d1d1"
     inkscape:document-units="mm"><inkscape:page
       x="0"
       y="0"
       width="71.437546"
       height="53.26915"
       id="page2"
       margin="0"
       bleed="0" /></sodipodi:namedview><defs
     id="defs1" /><g
     inkscape:label="Layer 1"
     inkscape:groupmode="layer"
     id="layer1"
     transform="translate(-66.021876,-117.79557)"><g
       id="g19"
       transform="translate(19.708746,-58.667894)"><path
         style="fill:#f0f0f5"
         d="M 75.194316,228.32377 73.03605,226.73961 V 213.3961 200.0526 l -1.653646,-1.21752 C 69.6619,197.56834 60.467885,191.02736 57.359488,188.85863 l -1.785938,-1.24605 v 13.88177 c 0,9.81508 -0.08422,13.88176 -0.287475,13.88176 -0.158112,0 -0.842721,-0.38505 -1.521354,-0.85567 -3.945473,-2.73613 -6.831654,-4.84088 -7.120858,-5.1929 -0.255387,-0.31086 -0.330729,-3.6066 -0.330729,-14.46729 0,-7.73559 0.077,-14.97565 0.171116,-16.08901 l 0.171115,-2.02429 h 4.146511 4.14651 l 5.008936,3.48287 c 2.754915,1.91559 6.147566,4.26707 7.539225,5.22552 1.391659,0.95846 5.225592,3.64765 8.519849,5.97598 l 5.98957,4.23333 0.009,15.47813 0.009,15.47812 -2.02072,1.45521 c -1.11139,0.80036 -2.16229,1.53995 -2.33533,1.64351 -0.1822,0.10906 -1.22295,-0.47841 -2.47287,-1.39585 z m 28.086254,-11.79805 c -1.86412,-1.69605 -3.686974,-3.3771 -4.050774,-3.73567 -0.3638,-0.35858 -2.65575,-2.51012 -5.09323,-4.78122 l -4.43177,-4.12926 v -2.85069 c 0,-1.56788 -0.0298,-2.93998 -0.0661,-3.04912 -0.0364,-0.10914 2.25557,-0.25863 5.09323,-0.33219 5.11226,-0.13254 5.17234,-0.14093 6.580254,-0.91927 2.27832,-1.25952 3.55856,-3.32894 3.56074,-5.75568 0.002,-1.98927 -1.08879,-4.17398 -2.64101,-5.29062 -1.84552,-1.32764 -3.333904,-1.518 -11.905164,-1.52259 l -7.71246,-0.004 -3.02135,-2.18281 c -1.66175,-1.20055 -3.92937,-2.83766 -5.03917,-3.63802 -1.109794,-0.80037 -1.990438,-1.55693 -1.956983,-1.68124 0.03346,-0.12432 6.392513,-0.20821 14.131233,-0.18643 15.411914,0.0434 15.550764,0.0556 18.851824,1.65301 2.24896,1.08832 5.17976,3.98017 6.31605,6.2321 2.6225,5.19737 2.04118,10.82492 -1.61233,15.60842 -1.1988,1.56958 -2.97492,2.93354 -5.18128,3.97891 -0.82875,0.39266 -1.56098,0.74991 -1.62718,0.79387 -0.0662,0.044 3.11872,3.32063 7.0776,7.28148 3.95889,3.96085 7.19798,7.29004 7.19798,7.39821 0,0.10816 -2.49317,0.19666 -5.54038,0.19666 h -5.54038 z"
         id="path25" /><path
         style="fill:#f0f0f5"
         d="m 75.086566,228.15695 -2.050516,-1.49291 v -13.40883 -13.40883 l -4.828646,-3.39259 c -2.655755,-1.86593 -5.602552,-3.94753 -6.548437,-4.62578 -0.945886,-0.67826 -2.702057,-1.91638 -3.902604,-2.75139 l -2.182813,-1.51821 -0.0041,13.57812 c -0.0022,7.46797 -0.106556,13.7399 -0.231838,13.93763 -0.173938,0.27452 -1.236291,-0.37356 -4.493865,-2.74143 l -4.266079,-3.10094 v -16.24242 -16.24242 h 4.175662 4.175661 l 1.975901,1.40455 c 2.134614,1.51737 12.614579,8.84824 15.205067,10.63614 1.471941,1.0159 3.047088,2.14281 8.003648,5.72607 l 1.91823,1.38675 v 15.29679 15.29679 l -2.16353,1.58478 c -1.18994,0.87164 -2.29127,1.5817 -2.4474,1.57791 -0.15612,-0.004 -1.2066,-0.67868 -2.33439,-1.49978 z m 30.625524,-9.51839 c -0.58208,-0.52612 -2.30849,-2.11404 -3.83645,-3.52872 -1.52797,-1.41468 -3.480474,-3.21342 -4.338894,-3.99721 -0.85842,-0.78378 -1.99513,-1.84178 -2.52602,-2.3511 -0.53089,-0.50933 -1.9419,-1.85537 -3.13559,-2.99121 l -2.17034,-2.06517 v -3.00414 -3.00413 l 5.22552,-0.0947 c 4.76993,-0.0864 5.321094,-0.14539 6.321584,-0.67626 2.02642,-1.07524 3.79874,-3.82353 3.79874,-5.89061 0,-2.42247 -1.64599,-5.00148 -3.91037,-6.12696 -1.221414,-0.60708 -1.439094,-0.62262 -9.851954,-0.70297 l -8.60294,-0.0822 -3.03872,-2.24082 c -1.6713,-1.23246 -3.99123,-2.92189 -5.1554,-3.75429 l -2.116665,-1.51347 2.381255,-0.0789 c 1.30968,-0.0434 7.91765,-0.0421 14.68437,0.003 l 12.303124,0.0816 1.75143,0.67947 c 2.54229,0.98627 4.13989,1.99441 5.80386,3.6624 4.33792,4.34841 5.34939,10.75826 2.59144,16.42237 -1.16328,2.38908 -3.97338,5.13576 -6.5014,6.35467 -1.051,0.50676 -1.88444,0.99802 -1.85208,1.09169 0.0324,0.0937 3.18423,3.35025 7.00415,7.23685 3.81992,3.88659 6.94531,7.17347 6.94531,7.30417 0,0.13286 -2.36217,0.23447 -5.35781,0.23046 l -5.35781,-0.007 z"
         id="path24" /><path
         style="fill:#f0f0f5"
         d="m 75.086566,228.14564 -2.050516,-1.47435 v -13.42266 -13.42267 l -1.521354,-1.10432 c -1.395203,-1.01276 -6.322213,-4.49282 -12.838151,-9.0679 -1.422051,-0.99847 -2.761504,-1.88292 -2.976563,-1.96545 -0.341911,-0.1312 -0.391015,1.59791 -0.391015,13.76889 0,12.78108 -0.08433,14.58817 -0.638876,13.69089 -0.07752,-0.12543 -1.930923,-1.50558 -4.118681,-3.067 l -3.977742,-2.83896 0.06817,-16.18144 0.06817,-16.18143 4.054152,-0.0731 4.054153,-0.0731 1.634389,1.14942 c 6.143154,4.32028 14.614189,10.2636 16.077319,11.27993 0.958612,0.66588 3.488694,2.45373 5.622394,3.97301 l 3.87947,2.76232 v 15.27747 15.27746 l -2.224,1.60553 c -1.22319,0.88303 -2.32452,1.59571 -2.44739,1.58371 -0.12287,-0.012 -1.14614,-0.68527 -2.27393,-1.49616 z m 28.477764,-11.52279 c -1.72915,-1.60606 -3.977344,-3.70493 -4.995994,-4.66415 -1.01864,-0.95922 -3.42966,-3.21156 -5.35781,-5.00519 l -3.50573,-3.26115 v -3.02166 -3.02167 h 4.98483 4.98482 l 1.657464,-0.82825 c 4.95844,-2.47776 4.9206,-9.27444 -0.0665,-11.94012 -1.07453,-0.57435 -1.384484,-0.5957 -9.810334,-0.67584 l -8.70074,-0.0827 -3.47009,-2.54308 c -1.90855,-1.3987 -4.2162,-3.08787 -5.128112,-3.75371 l -1.65802,-1.21064 13.635912,-0.0685 c 15.018414,-0.0755 15.855214,-0.009 18.980064,1.50088 3.42512,1.6553 5.86791,4.26456 7.29107,7.78796 2.70798,6.70427 -0.33798,14.48288 -6.96023,17.77465 -1.16276,0.57798 -2.13598,1.0529 -2.16271,1.05538 -0.0267,0.002 3.15326,3.2767 7.06665,7.27605 3.91339,3.99934 7.12011,7.33106 7.12605,7.40382 0.006,0.0728 -2.41415,0.1471 -5.37796,0.1652 l -5.38874,0.0329 z"
         id="path23" /><path
         style="fill:#f0f0f5"
         d="m 75.093556,228.12518 -2.043535,-1.50428 -0.007,-13.39581 -0.007,-13.39582 -1.389063,-1.03656 c -1.279469,-0.95477 -7.097034,-5.06062 -13.335735,-9.41191 -1.40833,-0.98227 -2.658927,-1.78594 -2.779103,-1.78594 -0.120177,0 -0.249322,6.25568 -0.286989,13.90151 l -0.06848,13.90151 -4.301489,-3.11574 -4.301489,-3.11574 0.06816,-16.14358 0.06816,-16.14358 4.001421,-0.0729 4.00142,-0.0729 3.936079,2.74458 c 5.299146,3.69503 14.1552,9.90196 19.060707,13.35906 l 4.01212,2.82749 0.0889,6.35 c 0.0489,3.4925 0.0534,10.47649 0.0101,15.51998 l -0.0788,9.16997 -1.94723,1.34612 c -1.07098,0.74037 -2.10708,1.39846 -2.30245,1.46243 -0.19537,0.064 -1.27481,-0.56062 -2.39875,-1.38797 z m 32.097184,-8.71729 c -0.6393,-0.11125 -2.89432,-2.11676 -12.392714,-11.02151 l -5.09323,-4.77491 v -2.83694 -2.83694 l 0.9705,-0.18207 c 0.53377,-0.10013 2.34124,-0.10377 4.0166,-0.008 5.29081,0.30218 7.782324,-0.63454 9.410434,-3.53799 0.71599,-1.27683 0.8142,-1.69843 0.80125,-3.43958 -0.0209,-2.80729 -1.0836,-4.52247 -3.65383,-5.8972 -1.05472,-0.56413 -1.405204,-0.58805 -9.783414,-0.66777 l -8.6895,-0.0827 -4.53967,-3.32664 c -2.49681,-1.82966 -4.774476,-3.54862 -5.061475,-3.81993 -0.509554,-0.48169 -0.204879,-0.49317 12.964585,-0.48868 15.188224,0.005 15.741714,0.0577 19.307234,1.83422 4.90146,2.44208 7.87232,7.15485 7.85553,12.46147 -0.0185,5.85669 -3.15901,10.75067 -8.42226,13.1249 -0.85246,0.38455 -1.59049,0.73198 -1.64005,0.77208 -0.0496,0.0401 3.12648,3.32536 7.05788,7.30059 3.9314,3.97523 7.11009,7.26561 7.06375,7.31195 -0.13311,0.1331 -9.46186,0.23923 -10.17162,0.11572 z"
         id="path22" /><path
         style="fill:#f0f0f5"
         d="m 75.189456,228.07141 -2.153406,-1.57737 -0.01126,-13.43032 -0.01126,-13.43032 -1.642382,-1.13009 c -0.903311,-0.62155 -4.835996,-3.38975 -8.739302,-6.15156 -3.903305,-2.76181 -7.146714,-5.02147 -7.207577,-5.02147 -0.06086,0 -0.141467,6.31577 -0.179122,14.03505 l -0.06847,14.03504 -3.836458,-2.79565 c -2.110052,-1.53761 -4.04574,-2.97144 -4.301529,-3.18629 -0.43572,-0.366 -0.460766,-1.40508 -0.396875,-16.46492 l 0.0682,-16.07427 3.969492,-0.0727 3.969492,-0.0727 9.127383,6.36521 c 5.02006,3.50087 11.12168,7.79657 13.55915,9.546 l 4.43177,3.18079 -0.001,15.39752 -10e-4,15.39751 -1.90219,1.32292 c -1.0462,0.7276 -2.0411,1.40888 -2.21088,1.51394 -0.17832,0.11034 -1.2182,-0.47519 -2.46211,-1.38635 z M 103.41109,216.3683 c -3.31691,-3.02964 -5.534384,-5.09532 -9.332564,-8.69375 -1.16862,-1.10716 -2.63078,-2.46047 -3.24925,-3.00735 l -1.12448,-0.99433 v -2.85485 -2.85484 l 4.96094,-0.0989 c 4.51133,-0.0899 5.087,-0.15513 6.351934,-0.71965 4.7256,-2.10897 5.44595,-8.85187 1.25008,-11.70142 -1.77976,-1.20869 -2.463054,-1.28795 -11.103724,-1.28795 h -8.13667 l -2.15138,-1.50676 c -1.18326,-0.82871 -3.5206,-2.52535 -5.19409,-3.77031 l -3.042711,-2.26356 1.719791,-0.0824 c 0.94589,-0.0453 7.31573,-0.0354 14.15521,0.022 10.85608,0.0911 12.634924,0.16306 14.006264,0.56658 5.16757,1.52054 9.34845,5.71531 10.44669,10.48139 0.38312,1.66265 0.34493,5.17021 -0.0734,6.74088 -1.1545,4.33484 -4.24001,7.94134 -8.27323,9.67018 -0.70335,0.30149 -1.33543,0.60477 -1.40461,0.67396 -0.0692,0.0692 3.14225,3.39545 7.13652,7.3917 l 7.26232,7.26592 h -5.47243 -5.47243 z"
         id="path21" /><path
         style="fill:#f0f0f5"
         d="m 75.285006,228.07199 -1.852081,-1.30753 -0.132292,-13.5452 -0.132292,-13.54521 -6.085416,-4.30384 c -8.311684,-5.87836 -11.435453,-8.03993 -11.618784,-8.03993 -0.08535,0 -0.155174,6.26352 -0.155174,13.91893 0,11.54699 -0.06061,13.89567 -0.35567,13.78245 -0.195618,-0.0751 -1.535071,-1.01606 -2.976562,-2.0911 -1.441491,-1.07503 -3.18644,-2.35622 -3.877664,-2.84709 l -1.25677,-0.89248 v -16.09473 -16.09473 h 4.000181 4.000182 l 2.019089,1.41323 c 1.110499,0.77728 2.792995,1.94621 3.738881,2.59762 1.648776,1.13547 2.328293,1.6126 7.216926,5.0674 1.19668,0.8457 3.128281,2.18803 4.292448,2.98296 1.990391,1.35911 4.181128,2.90381 8.015568,5.65181 l 1.64172,1.17657 v 15.2763 15.27631 l -2.04204,1.47265 c -1.12313,0.80995 -2.16493,1.46826 -2.31511,1.46289 -0.15018,-0.005 -1.10649,-0.59814 -2.12514,-1.31728 z m 30.427084,-9.70608 c -1.81406,-1.65345 -11.216754,-10.42268 -13.602664,-12.68624 l -2.27234,-2.15582 -0.004,-2.80512 -0.004,-2.80512 4.63403,-0.001 c 2.54872,-8.2e-4 5.06424,-0.12098 5.590054,-0.26704 1.41516,-0.39309 3.11308,-1.63316 3.95731,-2.89019 2.68725,-4.00121 0.65834,-9.23365 -4.068354,-10.49208 -1.02206,-0.27211 -3.39528,-0.36666 -9.26232,-0.36899 l -7.88818,-0.003 -2.69516,-1.90594 c -1.48233,-1.04826 -3.68829,-2.66135 -4.90213,-3.58463 l -2.206974,-1.67868 14.377814,0.0797 14.377804,0.0797 1.75143,0.68148 c 4.67014,1.81714 6.9899,4.03453 8.74868,8.36261 0.76088,1.87238 0.83944,2.32832 0.83484,4.84501 -0.004,2.12476 -0.13507,3.15148 -0.55783,4.36563 -1.36715,3.92644 -3.84623,6.78848 -7.362,8.49929 l -2.14101,1.04183 4.73496,4.88673 c 2.60424,2.6877 5.82755,5.98806 7.16293,7.33412 l 2.42797,2.4474 -5.28644,-0.007 -5.28644,-0.007 z"
         id="path20" /></g></g></svg>
